<mxfile host="app.diagrams.net" agent="Mozilla/5.0 (Macintosh; Intel Mac OS X 10_15_7) AppleWebKit/537.36 (KHTML, like Gecko) Chrome/134.0.0.0 Safari/537.36" version="26.2.3">
  <diagram name="Page-1" id="YeY-q9FxW9ENLDRRtVMK">
    <mxGraphModel grid="0" page="1" gridSize="10" guides="1" tooltips="1" connect="1" arrows="1" fold="1" pageScale="1" pageWidth="1700" pageHeight="1100" math="0" shadow="0">
      <root>
        <mxCell id="0" />
        <mxCell id="1" parent="0" />
        <mxCell id="tXkdrOxgkGBXOSIye3JM-8" style="edgeStyle=orthogonalEdgeStyle;rounded=0;orthogonalLoop=1;jettySize=auto;html=1;exitX=0;exitY=0;exitDx=160;exitDy=90;exitPerimeter=0;entryX=0;entryY=0.5;entryDx=0;entryDy=0;" edge="1" parent="1" source="tXkdrOxgkGBXOSIye3JM-3" target="tXkdrOxgkGBXOSIye3JM-5">
          <mxGeometry relative="1" as="geometry" />
        </mxCell>
        <mxCell id="tXkdrOxgkGBXOSIye3JM-3" value="Image at&lt;div&gt;the timepoint &lt;font style=&quot;font-size: 28px;&quot;&gt;&lt;b&gt;&lt;i&gt;t&lt;/i&gt;&lt;/b&gt;&lt;/font&gt;&lt;/div&gt;" style="shape=cube;whiteSpace=wrap;html=1;boundedLbl=1;backgroundOutline=1;darkOpacity=0.05;darkOpacity2=0.1;fontFamily=Times New Roman;fontSize=17;fillColor=#fff2cc;strokeColor=#d6b656;" vertex="1" parent="1">
          <mxGeometry x="80" y="280" width="160" height="160" as="geometry" />
        </mxCell>
        <mxCell id="tXkdrOxgkGBXOSIye3JM-14" style="edgeStyle=orthogonalEdgeStyle;rounded=0;orthogonalLoop=1;jettySize=auto;html=1;exitX=0;exitY=0;exitDx=160;exitDy=90;exitPerimeter=0;entryX=0.5;entryY=1;entryDx=0;entryDy=0;" edge="1" parent="1" source="tXkdrOxgkGBXOSIye3JM-4" target="tXkdrOxgkGBXOSIye3JM-12">
          <mxGeometry relative="1" as="geometry" />
        </mxCell>
        <mxCell id="tXkdrOxgkGBXOSIye3JM-4" value="predicted&lt;br&gt;&lt;div&gt;velocity field&lt;/div&gt;&lt;div&gt;&lt;b&gt;&lt;i&gt;&lt;font style=&quot;font-size: 28px;&quot;&gt;v&lt;/font&gt;&lt;/i&gt;&lt;/b&gt;&lt;/div&gt;" style="shape=cube;whiteSpace=wrap;html=1;boundedLbl=1;backgroundOutline=1;darkOpacity=0.05;darkOpacity2=0.1;fontFamily=Times New Roman;fontSize=17;fillColor=#e1d5e7;strokeColor=#9673a6;" vertex="1" parent="1">
          <mxGeometry x="320" y="500" width="160" height="160" as="geometry" />
        </mxCell>
        <mxCell id="tXkdrOxgkGBXOSIye3JM-5" value="UNet" style="shape=step;perimeter=stepPerimeter;whiteSpace=wrap;html=1;fixedSize=1;fontSize=17;fontFamily=Times New Roman;flipH=0;fillColor=#dae8fc;strokeColor=#6c8ebf;" vertex="1" parent="1">
          <mxGeometry x="310" y="305" width="160" height="130" as="geometry" />
        </mxCell>
        <mxCell id="tXkdrOxgkGBXOSIye3JM-9" style="edgeStyle=orthogonalEdgeStyle;rounded=0;orthogonalLoop=1;jettySize=auto;html=1;exitX=0.5;exitY=1;exitDx=0;exitDy=0;entryX=0.5;entryY=0;entryDx=0;entryDy=0;" edge="1" parent="1" source="tXkdrOxgkGBXOSIye3JM-6" target="tXkdrOxgkGBXOSIye3JM-5">
          <mxGeometry relative="1" as="geometry" />
        </mxCell>
        <mxCell id="tXkdrOxgkGBXOSIye3JM-15" style="edgeStyle=orthogonalEdgeStyle;rounded=0;orthogonalLoop=1;jettySize=auto;html=1;exitX=1;exitY=0.5;exitDx=0;exitDy=0;entryX=0.5;entryY=0;entryDx=0;entryDy=0;" edge="1" parent="1" source="tXkdrOxgkGBXOSIye3JM-6" target="tXkdrOxgkGBXOSIye3JM-12">
          <mxGeometry relative="1" as="geometry" />
        </mxCell>
        <mxCell id="tXkdrOxgkGBXOSIye3JM-6" value="timepoint&lt;div&gt;&lt;b&gt;&lt;i&gt;&lt;font style=&quot;font-size: 28px;&quot;&gt;t&lt;/font&gt;&lt;/i&gt;&lt;/b&gt;&lt;/div&gt;" style="whiteSpace=wrap;html=1;aspect=fixed;fontFamily=Times New Roman;fontSize=17;fillColor=#f8cecc;strokeColor=#b85450;" vertex="1" parent="1">
          <mxGeometry x="350" y="140" width="80" height="80" as="geometry" />
        </mxCell>
        <mxCell id="tXkdrOxgkGBXOSIye3JM-11" style="edgeStyle=orthogonalEdgeStyle;rounded=0;orthogonalLoop=1;jettySize=auto;html=1;exitX=0.5;exitY=1;exitDx=0;exitDy=0;entryX=0;entryY=0;entryDx=70;entryDy=0;entryPerimeter=0;" edge="1" parent="1" source="tXkdrOxgkGBXOSIye3JM-5" target="tXkdrOxgkGBXOSIye3JM-4">
          <mxGeometry relative="1" as="geometry" />
        </mxCell>
        <mxCell id="tXkdrOxgkGBXOSIye3JM-12" value="Euler method" style="ellipse;whiteSpace=wrap;html=1;fontFamily=Times New Roman;fontSize=17;fillColor=#d5e8d4;strokeColor=#82b366;" vertex="1" parent="1">
          <mxGeometry x="540" y="320" width="150" height="100" as="geometry" />
        </mxCell>
        <mxCell id="tXkdrOxgkGBXOSIye3JM-16" value="Image at&lt;div&gt;the next timepoint&lt;/div&gt;" style="shape=cube;whiteSpace=wrap;html=1;boundedLbl=1;backgroundOutline=1;darkOpacity=0.05;darkOpacity2=0.1;fontFamily=Times New Roman;fontSize=17;fillColor=#fff2cc;strokeColor=#d6b656;" vertex="1" parent="1">
          <mxGeometry x="760" y="300" width="160" height="160" as="geometry" />
        </mxCell>
        <mxCell id="tXkdrOxgkGBXOSIye3JM-17" style="edgeStyle=orthogonalEdgeStyle;rounded=0;orthogonalLoop=1;jettySize=auto;html=1;exitX=1;exitY=0.5;exitDx=0;exitDy=0;entryX=0;entryY=0;entryDx=0;entryDy=70;entryPerimeter=0;" edge="1" parent="1" source="tXkdrOxgkGBXOSIye3JM-12" target="tXkdrOxgkGBXOSIye3JM-16">
          <mxGeometry relative="1" as="geometry" />
        </mxCell>
      </root>
    </mxGraphModel>
  </diagram>
</mxfile>
